<svg xmlns="http://www.w3.org/2000/svg" width="23.295" height="22.735" viewBox="0 0 23.295 22.735">
  <path id="Icon_open-clock" data-name="Icon open-clock" d="M10.681,0A10.681,10.681,0,1,0,21.363,10.681,10.713,10.713,0,0,0,10.681,0Zm0,2.67A8.011,8.011,0,1,1,2.67,10.681,8,8,0,0,1,10.681,2.67ZM9.346,5.341v5.928l.427.347,1.335,1.335.908,1.015,1.923-1.923-1.015-.908-.908-.908V5.394H9.346Z" fill="#15233b"/>
  <path id="Path_2" data-name="Path 2" d="M8.5,0c4.694,0,3.893,3.806,3.893,8.5s.825,3.668-3.87,3.668S0,13.194,0,8.5A8.5,8.5,0,0,1,8.5,0Z" transform="translate(10.846 10.472)" fill="#c6deff"/>
  <path id="Path_1" data-name="Path 1" d="M6.045,0a4.647,4.647,0,0,1-2.16-.51A4.487,4.487,0,0,1,2.25-1.935,4.842,4.842,0,0,1,1.425-4.02,5.838,5.838,0,0,1,1.695-7.1,4.569,4.569,0,0,1,3.4-9.285a4.792,4.792,0,0,1,2.76-.8,4.917,4.917,0,0,1,2.347.555A4.537,4.537,0,0,1,10.2-7.988a5.129,5.129,0,0,1,.8,2.243H8.7a2.612,2.612,0,0,0-.765-1.628A2.421,2.421,0,0,0,6.18-7.995a2.4,2.4,0,0,0-1.425.472,2.9,2.9,0,0,0-1,1.3A3.377,3.377,0,0,0,3.57-4.41a3.1,3.1,0,0,0,.472,1.2,2.657,2.657,0,0,0,.862.825,2.15,2.15,0,0,0,1.11.3A2.69,2.69,0,0,0,7.92-2.753,2.679,2.679,0,0,0,8.73-4.59h2.3a4.745,4.745,0,0,1-.758,2.378A4.775,4.775,0,0,1,8.483-.585,5.119,5.119,0,0,1,6.045,0ZM.5-4.665H6.8V-3.63H.5Zm0-1.95H6.81v1.05H.5Z" transform="translate(11.846 22.472)" fill="#15233b"/>
</svg>
